<svg width="39" height="39" viewBox="0 0 39 39" fill="none" xmlns="http://www.w3.org/2000/svg">
<path d="M32.2174 0.847839H6.7826C5.84999 0.847839 5.08694 1.61088 5.08694 2.54349V36.4565C5.08694 37.3891 5.84999 38.1522 6.7826 38.1522H32.2174C33.15 38.1522 33.913 37.3891 33.913 36.4565V2.54349C33.913 1.61088 33.15 0.847839 32.2174 0.847839ZM30.5217 34.7609H8.47825V4.23914H30.5217V34.7609ZM12.0815 27.5544C12.0815 26.6218 12.8446 25.8587 13.7772 25.8587H25.2228C26.1554 25.8587 26.9185 26.6218 26.9185 27.5544C26.9185 28.487 26.1554 29.25 25.2228 29.25H13.7772C12.8446 29.25 12.0815 28.487 12.0815 27.5544ZM12.3359 19.5C12.3359 18.5674 13.0989 17.8044 14.0315 17.8044H25.1804C26.113 17.8044 26.8761 18.5674 26.8761 19.5C26.8761 20.4326 26.113 21.1957 25.1804 21.1957H14.0315C13.0989 21.1957 12.3359 20.4326 12.3359 19.5ZM12.3359 11.4457C12.3359 10.5131 13.0989 9.75001 14.0315 9.75001H25.1804C26.113 9.75001 26.8761 10.5131 26.8761 11.4457C26.8761 12.3783 26.113 13.1413 25.1804 13.1413H14.0315C13.0989 13.1413 12.3359 12.3783 12.3359 11.4457Z" fill="white"/>
</svg>
