<svg width="28" height="28" viewBox="0 0 28 28" fill="none" xmlns="http://www.w3.org/2000/svg">
<path fill-rule="evenodd" clip-rule="evenodd" d="M14 9.625C11.5838 9.625 9.625 11.5838 9.625 14C9.625 16.4163 11.5838 18.375 14 18.375C16.4163 18.375 18.375 16.4163 18.375 14C18.375 11.5838 16.4163 9.625 14 9.625ZM11.375 14C11.375 12.5503 12.5503 11.375 14 11.375C15.4497 11.375 16.625 12.5503 16.625 14C16.625 15.4497 15.4497 16.625 14 16.625C12.5503 16.625 11.375 15.4497 11.375 14Z" fill="black"/>
<path fill-rule="evenodd" clip-rule="evenodd" d="M14 3.79199C8.73349 3.79199 5.18615 6.94689 3.12731 9.62166L3.09018 9.66989C2.62456 10.2746 2.19572 10.8316 1.90478 11.4901C1.59323 12.1954 1.45831 12.964 1.45831 14.0003C1.45831 15.0367 1.59323 15.8053 1.90478 16.5105C2.19572 17.1691 2.62456 17.7261 3.09019 18.3308L3.12731 18.3789C5.18615 21.0538 8.73349 24.2087 14 24.2087C19.2664 24.2087 22.8138 21.0538 24.8726 18.3789L24.9097 18.3308C25.3754 17.7261 25.8042 17.1691 26.0952 16.5105C26.4068 15.8053 26.5416 15.0367 26.5416 14.0003C26.5416 12.964 26.4068 12.1954 26.0952 11.4901C25.8042 10.8316 25.3754 10.2746 24.9097 9.66987L24.8726 9.62166C22.8138 6.94689 19.2664 3.79199 14 3.79199ZM4.51407 10.6891C6.41506 8.2194 9.50873 5.54199 14 5.54199C18.4912 5.54199 21.5849 8.2194 23.4859 10.6891C23.9976 11.3538 24.2973 11.7511 24.4944 12.1972C24.6787 12.6143 24.7916 13.124 24.7916 14.0003C24.7916 14.8766 24.6787 15.3863 24.4944 15.8034C24.2973 16.2495 23.9976 16.6468 23.4859 17.3116C21.5849 19.7813 18.4912 22.4587 14 22.4587C9.50873 22.4587 6.41506 19.7813 4.51407 17.3116C4.00239 16.6468 3.70268 16.2495 3.50553 15.8034C3.32129 15.3863 3.20831 14.8766 3.20831 14.0003C3.20831 13.124 3.32129 12.6143 3.50553 12.1972C3.70268 11.7511 4.00238 11.3538 4.51407 10.6891Z" fill="black"/>
</svg>
