<svg width="28" height="28" viewBox="0 0 28 28" fill="none" xmlns="http://www.w3.org/2000/svg">
<path d="M15.1666 3.49967C15.1666 2.85535 14.6443 2.33301 14 2.33301C13.3556 2.33301 12.8333 2.85535 12.8333 3.49967V12.833H3.49998C2.85565 12.833 2.33331 13.3553 2.33331 13.9997C2.33331 14.644 2.85565 15.1663 3.49998 15.1663H12.8333V24.4997C12.8333 25.144 13.3556 25.6663 14 25.6663C14.6443 25.6663 15.1666 25.144 15.1666 24.4997V15.1663H24.5C25.1443 15.1663 25.6666 14.644 25.6666 13.9997C25.6666 13.3553 25.1443 12.833 24.5 12.833H15.1666V3.49967Z" fill="#0F0F0F"/>
</svg>
