<svg width="39" height="39" viewBox="0 0 39 39" fill="none" xmlns="http://www.w3.org/2000/svg">
<g clip-path="url(#clip0_1_15509)">
<path d="M19.5 0C14.3283 0 9.36838 2.05446 5.71142 5.71142C2.05446 9.36838 0 14.3283 0 19.5C0 24.6717 2.05446 29.6316 5.71142 33.2886C9.36838 36.9455 14.3283 39 19.5 39C24.6717 39 29.6316 36.9455 33.2886 33.2886C36.9455 29.6316 39 24.6717 39 19.5C39 14.3283 36.9455 9.36838 33.2886 5.71142C29.6316 2.05446 24.6717 0 19.5 0ZM19.5 8.125C19.931 8.125 20.3443 8.2962 20.649 8.60095C20.9538 8.9057 21.125 9.31902 21.125 9.75C21.125 10.181 20.9538 10.5943 20.649 10.899C20.3443 11.2038 19.931 11.375 19.5 11.375C19.069 11.375 18.6557 11.2038 18.351 10.899C18.0462 10.5943 17.875 10.181 17.875 9.75C17.875 9.31902 18.0462 8.9057 18.351 8.60095C18.6557 8.2962 19.069 8.125 19.5 8.125ZM19.5063 14.6218C19.7197 14.6227 19.9309 14.6655 20.1277 14.7479C20.3246 14.8304 20.5032 14.9508 20.6535 15.1023C20.8038 15.2537 20.9228 15.4334 21.0037 15.6308C21.0846 15.8283 21.1258 16.0398 21.125 16.2532V29.2468C21.1258 29.4602 21.0846 29.6717 21.0037 29.8692C20.9228 30.0666 20.8038 30.2463 20.6535 30.3977C20.5032 30.5492 20.3246 30.6696 20.1277 30.7521C19.9309 30.8345 19.7197 30.8773 19.5063 30.8782C19.2919 30.879 19.0794 30.8374 18.8811 30.7557C18.6828 30.674 18.5026 30.5539 18.3509 30.4022C18.1993 30.2506 18.0792 30.0704 17.9975 29.8721C17.9158 29.6738 17.8742 29.4613 17.875 29.2468V16.2532C17.8742 16.0387 17.9158 15.8262 17.9975 15.6279C18.0792 15.4296 18.1993 15.2494 18.3509 15.0978C18.5026 14.9461 18.6828 14.826 18.8811 14.7443C19.0794 14.6626 19.2919 14.621 19.5063 14.6218Z" fill="white"/>
</g>
<defs>
<clipPath id="clip0_1_15509">
<rect width="39" height="39" fill="white"/>
</clipPath>
</defs>
</svg>
