<svg width="32" height="26" viewBox="0 0 32 26" fill="none" xmlns="http://www.w3.org/2000/svg">
<path d="M31.9304 5.66957L28.2087 17.3913C27.9304 18.2261 27.2 18.7826 26.3304 18.7826H11.9652C11.1304 18.7826 10.3304 18.2609 10.0522 17.4957L4.55652 2.78261H1.3913C0.626087 2.78261 0 2.15652 0 1.3913C0 0.626087 0.626087 0 1.3913 0H5.53043C6.12174 0 6.64348 0.382609 6.85217 0.93913L12.5217 16H25.7391L28.6957 6.6087H12.313C11.5478 6.6087 10.9217 5.98261 10.9217 5.21739C10.9217 4.45217 11.5478 3.82609 12.313 3.82609H30.6087C31.0609 3.82609 31.4783 4.06957 31.7217 4.41739C32 4.76522 32.0696 5.25217 31.9304 5.66957ZM12.6609 20.6261C12.0696 20.6261 11.4783 20.8696 11.0609 21.287C10.6435 21.7043 10.4 22.2957 10.4 22.887C10.4 23.4783 10.6435 24.0696 11.0609 24.487C11.4783 24.9043 12.0696 25.1478 12.6609 25.1478C13.2522 25.1478 13.8435 24.9043 14.2609 24.487C14.6783 24.0696 14.9217 23.4783 14.9217 22.887C14.9217 22.2957 14.6783 21.7043 14.2609 21.287C13.8435 20.8696 13.2522 20.6261 12.6609 20.6261ZM25.1478 20.6261C24.5565 20.6261 23.9652 20.8696 23.5478 21.287C23.1304 21.7043 22.887 22.2957 22.887 22.887C22.887 23.4783 23.1304 24.0696 23.5478 24.487C23.9652 24.9043 24.5565 25.1478 25.1478 25.1478C25.7391 25.1478 26.3304 24.9043 26.7478 24.487C27.1652 24.0696 27.4087 23.4783 27.4087 22.887C27.4087 22.2957 27.1652 21.7043 26.7478 21.287C26.3304 20.8696 25.7391 20.6261 25.1478 20.6261Z" fill="white"/>
</svg>
