<svg width="32" height="32" viewBox="0 0 32 32" fill="none" xmlns="http://www.w3.org/2000/svg">
<g clip-path="url(#clip0_1_15479)">
<path d="M16 0.5C7.45001 0.5 0.5 7.45001 0.5 16C0.5 24.55 7.45001 31.5 16 31.5C24.55 31.5 31.5 24.55 31.5 16C31.5 7.45001 24.55 0.5 16 0.5ZM26.55 22.68C24.39 19.6 20.44 17.64 16 17.64C11.56 17.64 7.59998 19.6 5.46002 22.7C4.22998 20.76 3.5 18.46 3.5 16C3.5 9.10999 9.10999 3.5 16 3.5C22.89 3.5 28.5 9.10999 28.5 16C28.5 18.46 27.78 20.75 26.55 22.68Z" fill="white"/>
<path d="M16 15.97C18.7449 15.97 20.97 13.7449 20.97 11C20.97 8.25514 18.7449 6.03 16 6.03C13.2552 6.03 11.03 8.25514 11.03 11C11.03 13.7449 13.2552 15.97 16 15.97Z" fill="white"/>
</g>
<defs>
<clipPath id="clip0_1_15479">
<rect width="32" height="32" fill="white"/>
</clipPath>
</defs>
</svg>
